<svg xmlns="http://www.w3.org/2000/svg" width="400" height="400">
   <g transform="translate(200,320)">
     <rect x="-150" y="0" width="300" height="20" style="fill:#4cc24f" rx="10" ry="10"></rect>
     <ellipse cx="0" cy="-60" rx="40" ry="80" style="fill:#4cc24f" transform="translate(-80,0) rotate(-20)"></ellipse>
     <ellipse cx="0" cy="-60" rx="40" ry="80" style="fill:#4cc24f" transform="translate(80,0) rotate(20)"></ellipse>
   </g>
  <g transform="translate(200,320)">
    <rect x="-95" y="-180" width="190" height="180" style="fill:#69da6b" ></rect>
  </g>
  <g transform="translate(200,320)">
    <circle cx="-70" cy="-180" r="30" style="fill:#69da6b"></circle>
    <circle cx="-70" cy="-180" r="14" style="fill:#111;stroke:#fff;stroke-width:6"></circle>
    <circle cx="70" cy="-180" r="30" style="fill:#69da6b"></circle>
    <circle cx="70" cy="-180" r="14" style="fill:#111;stroke:#fff;stroke-width:6"></circle>
  </g>
  <g transform="translate(200,320)">
    <rect x="-70" y="-100" width="140" height="80" style="fill:#77f87a" rx="10" ry="10">
      <animateTransform attributeName="transform" type="scale" dur="2s" keyTimes="0;0.5;1" values="1,1;1.08,1.08;1,1" repeatCount="indefinite"></animateTransform>
    </rect>
    <path d="M-40 -140A -85 145 0 0 0 40 -140" fill="#333"></path>
  </g>

</svg>
